<svg width="20" height="20" viewBox="0 0 20 20" fill="none" xmlns="http://www.w3.org/2000/svg">
<path d="M12.2725 3.07254C12.3477 2.99299 12.4065 2.8994 12.4455 2.79712C12.4845 2.69485 12.503 2.58589 12.4999 2.47647C12.4968 2.36706 12.4722 2.25932 12.4275 2.15941C12.3827 2.05951 12.3188 1.96939 12.2392 1.89421C12.1596 1.81903 12.0661 1.76025 11.9638 1.72124C11.8615 1.68223 11.7526 1.66374 11.6431 1.66684C11.5337 1.66993 11.426 1.69455 11.3261 1.73928C11.2262 1.78401 11.1361 1.84799 11.0609 1.92754L3.97754 9.42754C3.83126 9.58227 3.74976 9.78712 3.74976 10C3.74976 10.213 3.83126 10.4178 3.97754 10.5725L11.0609 18.0734C11.1356 18.1547 11.2257 18.2203 11.3259 18.2665C11.4262 18.3127 11.5347 18.3385 11.645 18.3424C11.7553 18.3463 11.8653 18.3283 11.9686 18.2894C12.0719 18.2504 12.1664 18.1913 12.2467 18.1155C12.327 18.0397 12.3914 17.9487 12.4362 17.8478C12.481 17.7469 12.5053 17.6381 12.5077 17.5278C12.5101 17.4174 12.4906 17.3076 12.4502 17.2049C12.4098 17.1021 12.3494 17.0084 12.2725 16.9292L5.72921 10L12.2725 3.07254Z" fill="white"/>
</svg>
